<svg width="346" height="115" viewBox="0 0 346 115" fill="none" xmlns="http://www.w3.org/2000/svg">
<path d="M20.16 21.44V21.23C20.16 19.27 16.1 17.73 11.83 17.73C7.56 17.73 3.15 19.2 2.52 23.33C1.82 33.83 1.4 44.12 1.4 53.85C1.4 70.51 2.66 85.63 6.02 97.46C6.79 100.82 9.73 101.87 12.6 101.87C15.33 101.87 17.92 100.96 18.34 100.33C18.76 99.7 19.18 99.49 19.53 99.49C19.88 99.49 20.23 99.63 20.65 99.77C23.1 100.47 25.41 100.82 27.65 100.82C38.08 100.82 45.78 93.68 45.78 84.93C45.78 83.67 45.64 82.41 45.29 81.15C43.26 73.17 35.49 70.37 27.37 68.76C39.83 65.4 46.48 53.08 46.48 41.46C46.48 32.57 42.63 24.1 34.51 20.39C32.13 19.27 29.96 18.92 28.07 18.92C23.73 18.92 20.72 20.95 20.16 21.44ZM35.77 85.21C35.77 93.05 32.2 96.55 26.67 96.55H25.69C22.75 96.27 19.18 95.57 19.11 92.63C18.9 88.29 18.41 83.88 18.41 79.68C18.41 78.91 18.48 78.21 18.48 77.44V77.37C18.48 74.29 21.84 73.8 23.94 73.8C24.43 73.8 24.92 73.87 25.2 73.87C32.9 74.5 35.77 80.87 35.77 85.21ZM22.26 65.75C21.77 66.03 20.72 66.31 19.95 66.31C19.32 66.31 18.9 66.17 18.9 65.82V65.68C18.76 63.65 18.76 60.85 18.76 57.63C18.76 46.43 19.32 30.54 19.81 27.46C20.09 25.71 23.73 24.31 26.74 24.31H27.37C32.69 24.94 35.28 31.1 35.28 38.59C35.28 48.53 30.8 60.85 22.26 65.75ZM50.1255 24.1C50.4755 46.64 50.8255 77.93 52.4355 91.02C52.5055 94.45 55.3055 96.06 58.1055 96.06C60.9055 96.06 63.7755 94.38 63.7755 91.16C64.2655 81.85 65.3155 40.76 65.9455 27.67V27.32C65.9455 20.74 61.3255 17.66 57.0555 17.66C53.4855 17.66 50.1255 19.9 50.1255 24.1ZM149.146 56.09C149.426 55.11 149.636 53.78 149.636 52.24C149.636 47.34 147.606 40.62 140.606 38.66C138.926 38.17 137.316 37.96 135.916 37.96C124.716 37.96 122.266 52.17 121.986 65.12V66.45C121.986 76.04 126.116 91.44 136.266 91.79H136.616C144.596 91.79 150.266 81.08 150.266 75.48C150.266 73.45 149.566 72.12 147.956 72.12C146.066 72.19 145.996 73.8 145.786 75.34C145.016 80.38 143.546 85.84 138.156 85.84C137.946 85.84 137.666 85.77 137.386 85.77C134.096 85.42 132.556 82.62 132.556 71.77C132.556 69.39 132.626 66.59 132.766 63.37C135.986 62.88 147.466 62.6 149.146 56.09ZM140.116 43.42C142.636 44.05 144.736 48.39 144.736 51.89C144.736 53.99 143.966 55.74 142.146 56.3C140.046 56.93 138.366 57.21 137.036 57.21C134.656 57.21 133.466 56.44 133.466 55.39V55.04C133.466 52.87 134.376 43.28 139.066 43.28C139.416 43.28 139.766 43.35 140.116 43.42ZM165.681 95.5C165.891 94.45 166.101 94.03 166.451 94.03C167.291 94.03 168.971 96.13 173.871 96.13H174.011C184.721 96.13 190.601 85.14 191.161 76.11C191.231 75.41 191.231 74.43 191.231 73.38C191.231 66.38 189.481 53.36 175.691 53.36H175.201C169.951 53.5 168.341 56.65 167.991 56.65C167.921 56.65 167.921 56.51 167.921 56.3C167.991 51.33 168.831 41.11 168.831 30.4C168.831 27.88 168.831 25.36 168.691 22.84C168.551 19.55 165.891 17.66 163.161 17.66C160.711 17.66 158.121 19.27 157.491 22.84C155.951 30.96 154.341 44.47 154.341 60.01C154.341 71.07 155.181 83.18 157.491 95.15C157.911 97.32 159.661 98.23 161.411 98.23C163.371 98.23 165.331 97.18 165.681 95.5ZM167.641 62.11C167.711 60.78 170.791 58.61 173.941 58.61C175.271 58.61 176.601 59.03 177.721 59.94C179.331 61.34 180.381 66.8 180.381 72.82C180.381 81.43 178.281 91.16 172.751 91.51H172.331C170.231 91.51 168.481 90.53 166.731 89.48C166.451 89.27 166.381 89.06 166.381 88.85C166.381 88.57 166.451 88.29 166.451 88.08V86.96C166.451 85.63 166.591 83.95 167.641 62.11ZM221.06 56.09C221.34 55.11 221.55 53.78 221.55 52.24C221.55 47.34 219.52 40.62 212.52 38.66C210.84 38.17 209.23 37.96 207.83 37.96C196.63 37.96 194.18 52.17 193.9 65.12V66.45C193.9 76.04 198.03 91.44 208.18 91.79H208.53C216.51 91.79 222.18 81.08 222.18 75.48C222.18 73.45 221.48 72.12 219.87 72.12C217.98 72.19 217.91 73.8 217.7 75.34C216.93 80.38 215.46 85.84 210.07 85.84C209.86 85.84 209.58 85.77 209.3 85.77C206.01 85.42 204.47 82.62 204.47 71.77C204.47 69.39 204.54 66.59 204.68 63.37C207.9 62.88 219.38 62.6 221.06 56.09ZM212.03 43.42C214.55 44.05 216.65 48.39 216.65 51.89C216.65 53.99 215.88 55.74 214.06 56.3C211.96 56.93 210.28 57.21 208.95 57.21C206.57 57.21 205.38 56.44 205.38 55.39V55.04C205.38 52.87 206.29 43.28 210.98 43.28C211.33 43.28 211.68 43.35 212.03 43.42ZM256.705 59.1H256.845C257.755 59.1 260.695 58.33 261.115 55.39C261.185 55.04 261.255 54.55 261.255 53.92C261.255 50.35 259.365 43.63 253.135 42.37C252.505 42.23 251.875 42.16 251.315 42.16C246.695 42.16 243.755 45.8 242.285 45.8C241.795 45.8 241.445 45.31 241.375 43.98C240.675 39.85 237.875 37.96 234.795 37.96C230.735 37.96 226.395 41.25 226.395 46.5V47.76C226.395 52.66 226.815 77.58 229.125 85.56C229.615 87.38 232.135 88.57 234.305 88.57C235.705 88.57 236.965 88.08 237.595 86.96C239.275 84.51 241.165 70.58 242.005 56.58C242.145 53.29 246.205 48.46 249.635 48.46C250.475 48.46 251.245 48.74 251.945 49.37C254.885 52.1 254.605 54.55 255.165 57.56C255.305 58.4 255.935 59.1 256.705 59.1ZM295.055 59.1H295.195C296.105 59.1 299.045 58.33 299.465 55.39C299.535 55.04 299.605 54.55 299.605 53.92C299.605 50.35 297.715 43.63 291.485 42.37C290.855 42.23 290.225 42.16 289.665 42.16C285.045 42.16 282.105 45.8 280.635 45.8C280.145 45.8 279.795 45.31 279.725 43.98C279.025 39.85 276.225 37.96 273.145 37.96C269.085 37.96 264.745 41.25 264.745 46.5V47.76C264.745 52.66 265.165 77.58 267.475 85.56C267.965 87.38 270.485 88.57 272.655 88.57C274.055 88.57 275.315 88.08 275.945 86.96C277.625 84.51 279.515 70.58 280.355 56.58C280.495 53.29 284.555 48.46 287.985 48.46C288.825 48.46 289.595 48.74 290.295 49.37C293.235 52.1 292.955 54.55 293.515 57.56C293.655 58.4 294.285 59.1 295.055 59.1ZM327.735 43C327.525 47.55 326.965 58.68 326.685 63.23C326.685 63.93 323.255 67.01 319.895 67.01C316.395 67.01 312.825 63.79 312.825 51.54C312.825 48.88 313.035 45.8 313.385 42.23V41.81C313.385 39.29 311.005 38.31 308.415 38.31C305.405 38.31 302.045 39.71 301.905 41.81C301.905 41.81 301.555 44.4 301.555 48.04C301.555 56.86 303.445 71.91 316.395 72.19H316.605C320.735 72.19 324.375 70.02 325.845 68.41C325.845 80.66 324.935 91.72 315.205 92.28H314.575C310.655 92.28 306.875 89.76 306.875 84.44C306.875 82.97 307.155 81.36 307.785 79.47C307.855 79.33 307.855 79.12 307.855 78.98C307.855 78.07 306.805 77.58 305.685 77.58C304.775 77.58 303.795 77.86 303.445 78.56C302.885 80.73 302.675 82.76 302.675 84.72C302.675 92.91 307.365 99.07 318.145 99.28H318.565C338.375 99.28 341.665 73.45 341.665 56.37C341.665 48.18 340.895 42.09 340.825 41.74C340.335 39.22 337.535 37.96 334.665 37.96C331.375 37.96 327.945 39.64 327.735 43Z" fill="#006EF9"/>
<ellipse cx="94" cy="65.5" rx="26" ry="26.5" fill="#006EF9"/>
<path d="M105.746 48.849C105.98 48.6567 106.221 48.6908 105.793 48.8337C105.778 48.8389 105.762 48.8441 105.746 48.849C105.35 48.9732 104.939 49.002 104.527 49.0663C102.398 49.3995 100.103 49.6488 97.9438 49.6714C96.0347 49.6913 94.2758 49.2771 92.4997 48.6242C91.6944 48.3282 91.245 47.9959 90.3348 47.9959C89.9965 47.9959 89.2703 47.6227 89.6827 48.0018C90.392 48.6535 90.921 49.4171 91.2717 50.2764C91.8534 51.7019 90.2946 53.0143 89.1573 53.7668C88.9919 53.8763 87.8506 54.744 88.1065 54.6743C88.8331 54.4765 89.5376 54.174 90.3095 54.174C91.1238 54.174 91.1881 54.3008 91.297 55.0816C91.3942 55.7786 91.5734 56.5131 92.2402 56.9373C92.2577 56.9485 92.2768 56.9586 92.2973 56.9678C92.2264 56.6774 92.1667 56.3795 92.1199 56.0705C92.0072 55.326 91.8943 54.255 92.0756 53.505C92.1004 53.4026 93.3899 55.1253 93.5252 55.3259C93.6392 55.4949 93.7615 55.6826 93.892 55.8693C93.8923 55.8356 93.8924 55.8018 93.8924 55.768C93.8924 54.5121 93.9612 53.1938 93.7132 51.9427C93.175 51.9684 92.6194 51.948 92.2972 51.7424C91.8964 51.4866 91.5124 51.1617 92.0123 50.8232C92.1945 50.6999 92.6819 50.1247 92.8669 50.2182C93.2526 50.4131 93.4427 50.9335 93.5506 51.2886C93.616 51.5041 93.6695 51.7223 93.7132 51.9427C94.1336 51.9226 94.5434 51.8744 94.823 51.8645C96.4035 51.8087 98.0166 51.4424 99.5517 51.1141C100.77 50.8535 101.929 50.5869 103.027 50.032C103.768 49.6574 103.894 49.5784 103.236 50.1949C102.435 50.946 102.476 51.8473 102.445 52.9058C102.419 53.7646 102.658 54.5626 101.983 55.2212C101.898 55.304 101.773 55.6086 101.679 55.64C101.337 55.7541 101.011 55.9008 100.666 56.0065C98.7235 56.6015 96.6302 57.7925 94.5191 57.6238C94.1935 57.5978 94.0168 57.4446 93.8139 57.3093C93.7517 57.9719 93.6614 58.6275 93.5759 59.305C93.5273 59.69 93.737 60.7243 93.3797 59.9217C92.9332 58.9188 92.5464 57.9889 92.2973 56.9678C92.2768 56.9586 92.2577 56.9485 92.2402 56.9373C91.5734 56.5131 91.3942 55.7786 91.297 55.0816C91.1881 54.3008 91.1238 54.174 90.3095 54.174C89.5376 54.174 88.8331 54.4765 88.1065 54.6743C87.8506 54.744 88.9919 53.8763 89.1573 53.7668C90.2946 53.0143 91.8534 51.7019 91.2717 50.2764C90.921 49.4171 90.392 48.6535 89.6827 48.0018C89.2703 47.6227 89.9965 47.9959 90.3348 47.9959C91.245 47.9959 91.6944 48.3282 92.4997 48.6242C94.2758 49.2771 96.0347 49.6913 97.9438 49.6714C100.103 49.6488 102.398 49.3995 104.527 49.0663C104.939 49.002 105.35 48.9732 105.746 48.849Z" fill="#006EF9"/>
<path d="M88.8788 49.1478C88.8788 50.3521 88.8367 51.1106 88.0559 52.103C86.991 53.4564 85.7272 54.7356 84.0045 55.2445C83.5483 55.3792 84.7925 55.3259 85.03 55.3259C85.5493 55.3259 86.0676 55.5799 86.5999 55.6342C87.3924 55.7151 88.1006 56.0258 88.7395 56.4545C90.0182 57.3125 91.4472 58.5602 92.2718 59.8053C92.8653 60.7012 92.9122 61.6459 92.9808 62.6558C92.986 62.7323 92.9555 62.1935 92.9935 62.0799C93.2036 61.4525 94.2032 60.7169 94.7787 60.3521C96.4542 59.2902 98.4256 58.6198 100.299 57.9205C101.097 57.6224 101.944 57.5249 102.799 57.5249C103.352 57.5249 103.905 57.5249 104.458 57.5249C104.84 57.5249 104.521 57.3559 104.375 57.1875C103.903 56.6416 103.578 56.0657 103.578 55.3666C103.578 54.8847 103.732 54.3352 103.831 53.8832C104.109 52.6162 104.366 51.32 104.787 50.0844C104.945 49.6212 105.333 49.3097 105.654 48.9384C105.904 48.6496 106.278 48.6717 105.793 48.8337C105.383 48.9709 104.955 48.9994 104.527 49.0663C102.398 49.3995 100.103 49.6488 97.9438 49.6714C96.0347 49.6913 94.2758 49.2771 92.4997 48.6242C91.6944 48.3282 91.245 47.9959 90.3348 47.9959C89.9965 47.9959 89.2703 47.6227 89.6827 48.0018C90.392 48.6535 90.921 49.4171 91.2717 50.2764C91.8534 51.7019 90.2946 53.0143 89.1573 53.7668C88.9919 53.8763 87.8506 54.744 88.1065 54.6743C88.8331 54.4765 89.5376 54.174 90.3095 54.174C91.1238 54.174 91.1881 54.3008 91.297 55.0816C91.3942 55.7786 91.5734 56.5131 92.2402 56.9373C92.5017 57.1037 93.1199 57.0461 93.4366 57.1293C93.8697 57.243 94.0184 57.5838 94.5191 57.6238C96.6302 57.7925 98.7235 56.6015 100.666 56.0065C101.011 55.9008 101.337 55.7541 101.679 55.64C101.773 55.6086 101.898 55.304 101.983 55.2212C102.658 54.5626 102.419 53.7646 102.445 52.9058C102.476 51.8473 102.435 50.946 103.236 50.1949C103.894 49.5784 103.768 49.6574 103.027 50.032C101.929 50.5869 100.77 50.8535 99.5517 51.1141C98.0166 51.4424 96.4035 51.8087 94.823 51.8645C94.1857 51.8871 92.8712 52.1087 92.2972 51.7424C91.8964 51.4866 91.5124 51.1617 92.0123 50.8232C92.1945 50.6999 92.6819 50.1247 92.8669 50.2182C93.2526 50.4131 93.4427 50.9335 93.5506 51.2886C93.9875 52.7276 93.8924 54.2909 93.8924 55.768C93.8924 56.9844 93.7266 58.1107 93.5759 59.305C93.5273 59.69 93.737 60.7243 93.3797 59.9217C92.8062 58.6335 92.3311 57.4657 92.1199 56.0705C92.0072 55.326 91.8943 54.255 92.0756 53.505C92.1004 53.4026 93.3899 55.1253 93.5252 55.3259C93.8064 55.7428 94.1379 56.2729 94.5191 56.6232C94.8218 56.9014 97.5833 55.4115 98.0704 55.291C98.3884 55.2123 99.6029 55.0356 99.6973 54.6453C99.8133 54.1654 100.239 53.7479 100.615 53.3829C101.019 52.991 99.8895 52.9391 99.6403 52.9233C98.6051 52.8577 97.5845 53.0697 96.6018 53.3596C96.5033 53.3887 94.9829 53.8599 95.7155 53.8599C96.126 53.8599 96.576 53.9177 96.8803 54.1973C97.0417 54.3456 97.0987 54.8692 97.2601 54.7209C97.6549 54.3581 97.254 54.1283 96.9689 53.9646" stroke="black" stroke-width="3" stroke-linecap="round"/>
</svg>
